<?xml version="1.0" encoding="UTF-8"?> <svg xmlns="http://www.w3.org/2000/svg" width="403" height="107" viewBox="0 0 403 107" fill="none"><g clip-path="url(#clip0_28_589)"><path d="M186.113 0.921366H174.165C173.121 0.997577 172.388 1.42713 171.808 2.34166L143.619 46.5578L129.487 2.7435C129.155 1.71119 128.214 1.11536 127.302 0.914438L115.838 0.928294C115.168 0.928294 114.469 1.62112 114.345 2.39708L104.43 65.2364L86.7922 0.990648C86.6263 0.38789 85.9487 0.00683594 85.4578 0.00683594H80.0233C79.4011 0.00683594 78.7719 0.353249 78.3985 0.990648L38.2555 69.0053C38.0066 69.428 38.0204 70.2039 38.1863 70.5018C38.3315 70.7582 38.94 71.1392 39.2511 71.1392H51.4613C51.9177 71.1462 52.6782 70.6889 52.8995 70.2871L78.5022 26.7014L87.373 59.3058H77.5758C73.455 59.3058 71.0489 62.2434 70.2745 63.6013C69.4379 65.077 65.8979 71.1392 65.8979 71.1392H91.39C91.39 71.1392 91.4177 71.1531 91.4315 71.1531L98.152 71.1392H105.031V71.1254C105.031 71.1254 105.059 71.1254 105.073 71.1254L117.477 71.1392C118.175 71.0423 118.873 70.5503 118.998 69.7605L124.709 33.4357L137.078 69.2063C138.129 72.0953 142.029 71.9429 144.117 68.9083L167.41 33.5535L161.782 69.6012C161.651 70.4603 162.501 71.1254 163.054 71.1254L175.493 71.1392C176.073 71.1392 176.806 70.5919 176.917 69.8991L187.606 2.81278C187.786 1.70426 187.198 0.914438 186.099 0.914438L186.113 0.921366Z" fill="#21409A"></path><path d="M37.8268 63.2619L33.2843 57.6015C31.1963 55.0034 29.5853 62.2227 21.0049 61.0102C17.7 60.5391 15.1902 58.4399 14.2153 55.2875C12.9293 51.1306 13.6345 46.551 16.1582 42.9829C18.8339 39.2001 23.5701 37.6759 27.8913 39.2832C32.3993 40.9668 32.7174 45.4217 34.7777 43.6757L41.3738 38.0708C41.9131 37.6135 41.4083 36.3249 41.0281 35.826C38.6427 32.7152 35.5245 30.519 31.7425 29.2026C21.5719 25.6554 10.0185 29.3689 3.9756 38.3548C-0.269638 44.6596 -1.12007 52.6894 1.46579 59.7839C3.4847 65.3265 7.8613 69.2549 13.4409 70.9315C17.2713 72.0816 21.1017 72.1301 25.0566 71.6243C29.8549 71.0146 34.0725 68.9431 37.5226 65.5829C38.1933 64.9316 38.5044 64.0933 37.8338 63.2619H37.8268Z" fill="#21409A"></path><path d="M263.972 13.7178C265.749 10.3368 269.075 8.63937 272.87 8.75022C279.48 8.93728 281.955 14.0226 283.165 12.5746L287.501 7.39921C288.655 6.02049 284.396 3.58174 283.463 3.08984C277.779 0.145327 271.232 -0.457431 265.078 1.40627C257.369 3.74109 253.193 10.6763 251.935 18.2558L250.178 28.8352L243.327 28.856C243.818 26.542 244.039 24.1517 244.004 21.7407C243.949 17.9925 243.465 14.5076 242.068 11.092C239.074 3.78959 232.465 0.921292 224.901 0.921292H200.19C199.533 0.921292 198.793 1.50327 198.676 2.25845L188.152 69.4902C188.014 70.3909 188.609 71.1392 189.404 71.1392L201.566 71.153C202.361 71.153 203.142 70.5849 203.28 69.7397L206.516 49.6547L222.246 49.5161C227.901 49.4745 232.79 46.1767 236.516 42.1652C237.947 40.6271 239.164 38.9436 240.181 37.163L248.858 37.2046L242.324 79.0097C242.186 79.8826 242.746 80.2498 243.534 80.2498H246.479C248.92 80.2498 252.426 78.982 253.407 73.3216L259.257 37.1561L274.827 37.1699L269.738 69.8852C269.794 70.7928 270.347 71.4094 271.045 71.4094L278.402 71.4302C278.955 71.4302 279.764 70.9244 279.874 70.2593L286.215 30.5188C286.353 29.6666 285.724 28.8768 284.901 28.8768L260.584 28.8629L262.154 19.1911C262.465 17.2581 263.122 15.436 263.965 13.7178H263.972ZM226.249 32.0292C224.714 33.9968 222.778 35.9783 220.192 35.9991L208.632 36.0822L212.013 14.5492H221.402C224.693 14.5561 227.251 16.7454 228.136 19.8285C229.201 23.9924 228.572 28.281 226.249 32.0292Z" fill="#21409A"></path><path d="M353.848 0.748139H350.902C348.462 0.748139 344.956 2.01601 343.975 7.6764L334.115 69.7605C334.039 70.6265 334.544 71.4094 335.36 71.4094L342.827 71.4233C343.594 71.4233 344.085 70.779 344.265 70.0792L355.058 1.98137C355.196 1.10841 354.636 0.741211 353.848 0.741211V0.748139Z" fill="#21409A"></path><path d="M401.769 0.748232H398.824C396.383 0.748232 392.878 2.0161 391.896 7.67649L387.782 33.1378C385.445 30.4635 382.569 28.9947 379.181 28.3989C372.108 27.1587 365.145 29.9093 360.492 35.3826C354.429 42.3524 352.79 53.9919 356.427 62.3474C358.695 67.5574 363.216 71.1116 368.844 71.9361C374.376 72.7467 379.969 71.7975 384.118 67.308L385.231 70.2664C385.459 70.8691 386.24 71.4234 386.863 71.4234H390.617C391.343 71.4234 392.186 70.8761 392.332 69.9615L402.979 1.97453C403.118 1.10157 402.557 0.734375 401.769 0.734375V0.748232ZM383.509 58.2528C381.338 62.9155 376.747 65.0979 371.838 63.9339C362.864 61.8 362.822 48.5255 367.904 41.1261C370.373 37.5373 374.376 35.6043 378.6 36.1655C388.342 37.468 386.524 51.7679 383.509 58.2458V58.2528Z" fill="#21409A"></path><path d="M322.085 60.7122C322.831 60.1441 323.696 60.6637 323.938 61.2249L325.535 65.0078C325.874 65.8184 325.853 66.7952 325.092 67.4534C323.979 68.4165 322.769 69.2478 321.366 69.8575C315.42 72.4487 308.727 72.9891 302.532 71.0769C295.521 68.9153 290.771 63.1579 289.851 55.904C289.029 49.4122 290.667 42.9205 294.491 37.6065C299.586 30.5327 307.994 27.0478 316.602 28.3781C327.519 30.0616 332.829 40.7727 331.011 50.9711C330.879 51.6986 330.153 52.2944 329.386 52.2944H299.448C299.462 57.0749 301.453 61.7099 306.258 63.345C311.651 65.174 317.521 64.1833 322.085 60.7122ZM322.016 46.2737C322.569 41.6942 320.799 37.5719 316.858 35.9506C311.921 33.9207 306.431 35.528 303.237 39.7681C301.778 41.708 300.755 43.8142 300.174 46.2807H322.016V46.2737Z" fill="#21409A"></path><path d="M35.8978 106.723H32.8902C32.5583 106.723 32.4684 106.356 32.5099 106.106L33.9273 97.1412H23.8189L22.2563 106.723C22.2563 106.723 19.4907 106.723 19.3179 106.723C19.1035 106.723 19.0136 106.668 18.9376 106.578C18.8339 106.467 18.8477 106.307 18.8685 106.183L22.3393 84.2962H25.2432C25.499 84.2962 25.6373 84.3863 25.6995 84.4694C25.7618 84.5526 25.7963 84.6288 25.7479 84.9613C25.7065 85.2315 24.3029 93.9889 24.3029 93.9889L34.4113 94.0097L35.9669 84.2893H38.8155C39.1059 84.2893 39.2235 84.3378 39.2995 84.4209C39.3894 84.5179 39.417 84.6357 39.3894 84.8366L35.8909 106.716L35.8978 106.723Z" fill="#72BF44"></path><path d="M156.949 84.2893C157.17 84.2893 157.385 84.3655 157.461 84.4833C157.523 84.5803 157.571 84.7258 157.53 84.9752L155.117 100.01C154.557 103.508 151.874 106.037 148.493 106.73C144.144 107.617 139.346 106.508 137.839 101.943C137.424 100.695 137.23 99.3652 137.445 98.035L139.65 84.3032H142.54C142.706 84.2962 142.893 84.3517 142.983 84.4972C143.073 84.6288 143.059 84.8089 143.031 84.9752L140.902 98.61C140.611 100.481 141.586 102.33 143.135 103.19C144.566 103.986 146.149 104.028 147.698 103.661C149.821 103.155 151.432 101.485 151.778 99.2682L154.038 84.8228C154.087 84.5179 154.35 84.3032 154.674 84.3032H156.942L156.949 84.2893Z" fill="#72BF44"></path><path d="M226.311 100.418C226 104.631 222.066 106.958 217.98 107C214.986 107.028 212.096 106.037 209.918 104.021C209.614 103.737 209.226 103.224 209.275 102.864L211.321 100.577C213.237 102.698 215.684 103.924 218.484 103.744C220.669 103.605 222.882 102.33 222.591 100.072C222.107 96.275 211.785 97.1757 212.241 90.5661C212.428 87.8226 214.177 85.5085 216.804 84.594C220.462 83.3123 224.583 84.1921 227.431 86.7764C227.563 86.8942 227.735 87.1505 227.77 87.2752C227.805 87.3999 227.652 87.6632 227.563 87.7602L226.048 89.4368C225.848 89.6655 225.468 89.6863 225.226 89.4576C223.559 87.8572 221.381 86.9565 219.079 87.2337C218.049 87.3584 217.067 87.7741 216.445 88.5431C215.373 89.8595 215.677 91.6123 217.108 92.5061C220.393 94.5568 226.698 95.0695 226.304 100.418H226.311Z" fill="#72BF44"></path><path d="M123.617 97.1273L122.572 103.55L131.872 103.564C132.135 103.564 132.411 103.778 132.363 104.083L131.865 106.709H119.067C118.867 106.709 118.625 106.335 118.659 106.134L122.04 84.7881C122.082 84.5317 122.413 84.2754 122.649 84.2754L135.315 84.2893C135.357 85.4463 135.198 86.4024 134.866 87.4277L125.131 87.4416L124.121 93.968L131.015 94.0304C130.952 95.2498 130.821 96.0396 130.531 97.1134H123.623L123.617 97.1273Z" fill="#72BF44"></path><path d="M196.567 103.682C201.379 104.277 203.509 101.208 204.027 101.173C204.138 101.173 204.359 101.326 204.435 101.43L205.88 103.287C205.126 104.409 204.082 105.102 202.907 105.684C200.466 106.896 197.798 107.305 195.122 106.751C191.264 105.954 188.325 103.12 187.468 99.2543C186.417 94.4877 188.228 89.7211 191.997 86.6657C195.495 83.8251 200.217 83.16 204.29 85.1346C205.797 85.869 207.007 86.9013 207.899 88.3216C208.044 88.5502 207.989 89.0352 207.802 89.1807C206.986 89.8111 206.33 90.3308 205.438 90.9266C204.387 89.0352 202.976 87.8574 200.992 87.4347C197.887 86.7696 194.783 87.9751 192.806 90.4762C190.946 92.8388 190.303 95.9288 191.043 98.8525C191.706 101.471 193.801 103.328 196.567 103.668V103.682Z" fill="#72BF44"></path><path d="M8.73246 106.716H5.71102C5.39988 106.716 5.30309 106.425 5.34457 106.155L8.3107 87.4485H2.66883C2.55129 87.4485 2.29547 87.3861 2.19867 87.2545C2.08805 87.1021 2.08113 86.8804 2.10879 86.7695L2.59969 84.2961H17.9627C18.3499 84.2961 18.5643 84.5109 18.5089 84.8643L18.0388 87.4346H11.823L8.73246 106.716Z" fill="#72BF44"></path><path d="M167.389 106.723H164.423C164.133 106.723 163.96 106.473 163.995 106.224L166.968 87.4554L161.028 87.4415C160.475 87.4277 161.091 84.8226 161.291 84.2961L176.537 84.2822C176.882 84.2822 177.187 84.5663 177.138 84.8711L176.855 86.8734C176.806 87.2337 176.474 87.4484 176.094 87.4484H170.48L167.389 106.723Z" fill="#72BF44"></path><path d="M180.955 106.716C179.766 106.716 178.694 106.723 177.83 106.716C177.581 106.716 177.484 106.487 177.532 106.182L181.003 84.2961H183.921C184.253 84.2823 184.467 84.5733 184.419 84.885L180.955 106.709V106.716Z" fill="#72BF44"></path><path d="M46.4556 97.1342L45.4185 103.55L54.7179 103.564C54.9115 103.564 55.2433 103.931 55.2088 104.104L54.704 106.709H42.0306C41.7333 106.716 41.4636 106.411 41.5189 106.065L44.893 84.7881C44.9483 84.4555 45.3009 84.2754 45.619 84.2754L58.2026 84.3031C58.1749 85.5502 58.0297 86.3608 57.7462 87.4347L47.9905 87.4485L46.9672 93.975L53.8674 94.0442C53.7914 95.2498 53.66 95.9772 53.4042 97.1135L46.4556 97.1342Z" fill="#72BF44"></path><path d="M74.658 106.591C73.9805 106.723 71.3877 106.972 71.1595 106.342L68.463 98.8454H63.6647L62.3925 106.716H59.4679C59.1152 106.723 58.9562 106.508 59.0046 106.224L62.4755 84.3168L71.2702 84.303C73.6348 84.3099 75.6813 85.7995 76.4903 87.9472C77.9077 92.0973 76.1238 97.2588 71.6919 98.596L74.6511 106.598L74.658 106.591ZM73.054 93.0464C73.4688 91.9448 73.5034 90.8225 73.3098 89.7278C73.0886 88.4876 71.9408 87.4623 70.6479 87.4415H65.49L64.1832 95.7415L69.2098 95.7623C70.959 95.7692 72.4317 94.73 73.0609 93.0464H73.054Z" fill="#72BF44"></path><path d="M92.6969 102.566H82.3465L79.9888 106.716H77.2785C77.1679 106.723 76.9466 106.695 76.836 106.577C76.7323 106.474 76.6908 106.224 76.836 105.982L89.6478 84.0121C90.3115 83.8597 90.671 83.8736 91.2864 83.9636L97.2187 105.864C97.2601 106.03 97.3085 106.224 97.2187 106.404C97.0873 106.668 96.8246 106.73 96.6586 106.73L93.8722 106.716L92.7038 102.573L92.6969 102.566ZM91.9294 99.4275L89.5026 90.3099L84.1995 99.4344H91.9225L91.9294 99.4275Z" fill="#72BF44"></path><path d="M105.101 99.2474L103.87 106.716H100.931C100.607 106.716 100.448 106.383 100.496 106.058L103.863 84.8227C103.911 84.504 104.271 84.2754 104.568 84.2754L112.015 84.2962C114.538 84.3239 116.564 86.1183 117.124 88.5086C117.684 90.8988 117.428 93.4761 116.073 95.6239C114.718 97.7716 112.609 99.1919 110.12 99.2127L105.108 99.2474H105.101ZM113.017 94.162C113.826 92.8318 114.02 91.2937 113.681 89.818C113.377 88.4878 112.264 87.4901 110.846 87.4762L106.981 87.4485L105.592 96.0604L109.519 96.095C110.964 96.1089 112.229 95.4645 113.024 94.162H113.017Z" fill="#72BF44"></path></g><defs><clipPath id="clip0_28_589"><rect width="403" height="107" fill="white"></rect></clipPath></defs></svg> 